<svg
    width="24"
    height="24"
    viewBox="0 0 24 24"
    fill="none"
    xmlns="http://www.w3.org/2000/svg"
    stroke-width="1.5">
    <path
        d="M2.28999 13.99H1V9.98999H2.28999C3.09999 9.98999 3.83 9.50001 4.14 8.76001L4.14999 8.72998C4.45999 7.97998 4.29 7.11999 3.72 6.54999L2.81 5.63995L5.64 2.81L6.55 3.71997C7.13 4.29997 7.99001 4.46996 8.74001 4.14996L8.77 4.13995C9.52 3.82995 10 3.09998 10 2.28998V1H14V2.28998C14 3.09998 14.49 3.82995 15.23 4.13995L15.26 4.14996C16.01 4.45996 16.87 4.28997 17.44 3.71997L18.35 2.81L21.18 5.63995L20.27 6.54999C19.69 7.12999 19.52 7.98999 19.84 8.73999L19.85 8.76996C20.16 9.51996 20.89 10 21.7 10H22.99V14H21.7C20.89 14 20.16 14.49 19.85 15.23L19.84 15.26C19.53 16.01 19.7 16.87 20.27 17.44L21.18 18.35L18.35 21.18L17.44 20.27C16.87 19.7 16.01 19.53 15.26 19.84L15.23 19.85C14.48 20.16 14 20.89 14 21.7V22.99H10V21.7C10 20.89 9.51 20.16 8.77 19.85L8.74001 19.84C7.99001 19.53 7.13 19.7 6.56 20.27L5.64999 21.18L2.82001 18.35L3.73 17.44C4.31 16.86 4.48 16 4.16 15.25L4.14999 15.22C3.82999 14.47 3.09999 13.99 2.28999 13.99Z"
        stroke="#ccc"
        stroke-miterlimit="10"
        stroke-linecap="round"
        stroke-linejoin="round" />
    <path
        d="M15.5 11.99C15.5 12.3 15.46 12.6 15.38 12.89C15.3 13.19 15.19 13.48 15.03 13.74C14.72 14.27 14.29 14.71 13.75 15.02C13.49 15.18 13.2 15.29 12.9 15.37C12.61 15.45 12.31 15.49 12 15.49C11.69 15.49 11.39 15.45 11.1 15.37C10.8 15.29 10.51 15.18 10.25 15.02C9.72 14.71 9.28 14.28 8.97 13.74C8.81 13.48 8.7 13.19 8.62 12.89C8.54 12.6 8.5 12.3 8.5 11.99C8.5 11.68 8.54 11.38 8.62 11.09C8.7 10.79 8.81 10.5 8.97 10.24C9.28 9.70999 9.71 9.26996 10.25 8.95996C10.51 8.79996 10.8 8.68999 11.1 8.60999C11.39 8.52999 11.69 8.48999 12 8.48999C12.31 8.48999 12.61 8.52999 12.9 8.60999C13.2 8.68999 13.49 8.79996 13.75 8.95996C14.28 9.26996 14.72 9.69999 15.03 10.24C15.19 10.5 15.3 10.79 15.38 11.09C15.46 11.38 15.5 11.67 15.5 11.99Z"
        stroke="#ccc"
        stroke-miterlimit="10"
        stroke-linecap="round"
        stroke-linejoin="round" />
</svg>
